<svg width="600" height="600" viewBox="0 0 600 600" fill="none" xmlns="http://www.w3.org/2000/svg">
<rect width="600" height="600" rx="50" fill="#212529"/>
<path d="M245.713 368.6H202.513V443H123.313V163H251.313C276.646 163 298.646 167.267 317.313 175.8C335.979 184.067 350.379 196.067 360.513 211.8C370.646 227.267 375.713 245.533 375.713 266.6C375.713 286.867 370.913 304.6 361.313 319.8C351.979 334.733 338.513 346.467 320.913 355L381.313 443H296.513L245.713 368.6ZM295.713 266.6C295.713 253.533 291.579 243.4 283.313 236.2C275.046 229 262.779 225.4 246.513 225.4H202.513V307.4H246.513C262.779 307.4 275.046 303.933 283.313 297C291.579 289.8 295.713 279.667 295.713 266.6ZM447.806 446.6C435.006 446.6 424.206 442.333 415.406 433.8C406.606 425.267 402.206 414.467 402.206 401.4C402.206 388.067 406.473 377.267 415.006 369C423.806 360.733 434.74 356.6 447.806 356.6C461.14 356.6 472.073 360.733 480.606 369C489.14 377.267 493.406 388.067 493.406 401.4C493.406 414.467 489.006 425.267 480.206 433.8C471.673 442.333 460.873 446.6 447.806 446.6Z" fill="#F8F9FA"/>
</svg>
